<svg xmlns="http://www.w3.org/2000/svg" xmlns:xlink="http://www.w3.org/1999/xlink" width="500" zoomAndPan="magnify" viewBox="0 0 375 374.999991" height="500" preserveAspectRatio="xMidYMid meet" version="1.0"><defs><g/><clipPath id="c338765ed2"><path d="M 191 114 L 232.644531 114 L 232.644531 145 L 191 145 Z M 191 114 " clip-rule="nonzero"/></clipPath><clipPath id="62c8b443cf"><path d="M 176 162 L 214 162 L 214 193.117188 L 176 193.117188 Z M 176 162 " clip-rule="nonzero"/></clipPath><clipPath id="455c71c6a7"><path d="M 147.144531 142 L 207 142 L 207 193.117188 L 147.144531 193.117188 Z M 147.144531 142 " clip-rule="nonzero"/></clipPath><clipPath id="757bc9fdb0"><path d="M 198 110.617188 L 204 110.617188 L 204 117 L 198 117 Z M 198 110.617188 " clip-rule="nonzero"/></clipPath></defs><g clip-path="url(#c338765ed2)"><path fill="#498536" d="M 191.464844 144.378906 C 199.203125 144.226562 206.683594 143.140625 213.410156 141.242188 L 224.78125 127.246094 C 226.96875 127.554688 229.289062 126.738281 230.800781 124.796875 C 232.621094 122.460938 232.597656 119.113281 230.75 116.800781 C 228.292969 113.730469 223.804688 113.546875 221.105469 116.25 C 219.609375 117.746094 219 119.789062 219.273438 121.734375 L 191.464844 144.378906 " fill-opacity="1" fill-rule="nonzero"/></g><g clip-path="url(#62c8b443cf)"><path fill="#80cc28" d="M 178.144531 162.167969 C 178.144531 162.167969 179.269531 169.273438 190.824219 169.703125 C 212.980469 170.523438 213.320312 193.117188 213.320312 193.117188 C 213.320312 193.117188 208.46875 177.476562 189.824219 175.21875 C 189.824219 175.21875 204.460938 179.882812 208.945312 190.535156 C 202.699219 188.585938 193.175781 189.773438 185.722656 185.4375 C 171.820312 177.351562 178.144531 162.167969 178.144531 162.167969 " fill-opacity="1" fill-rule="nonzero"/></g><path fill="#80cc28" d="M 214.613281 155.605469 C 214.613281 155.605469 212.960938 159.210938 206.761719 157.71875 C 194.882812 154.855469 191.34375 166.796875 191.34375 166.796875 C 191.34375 166.796875 196.242188 159.21875 206.476562 160.796875 C 206.476562 160.796875 198.011719 161.089844 194.046875 166.078125 C 197.652344 165.972656 202.535156 168.019531 207.132812 166.828125 C 215.714844 164.609375 214.613281 155.605469 214.613281 155.605469 " fill-opacity="1" fill-rule="nonzero"/><path fill="#80cc28" d="M 154.675781 116.109375 C 154.675781 116.109375 155.429688 122.023438 164.988281 122.667969 C 183.3125 123.90625 183.027344 142.621094 183.027344 142.621094 C 183.027344 142.621094 179.402344 129.550781 164.019531 127.210938 C 164.019531 127.210938 176.023438 131.441406 179.472656 140.375 C 174.347656 138.601562 166.433594 139.347656 160.371094 135.570312 C 149.058594 128.527344 154.675781 116.109375 154.675781 116.109375 " fill-opacity="1" fill-rule="nonzero"/><g clip-path="url(#455c71c6a7)"><path fill="#498536" d="M 159.441406 160.46875 C 158.867188 158.003906 158.539062 155.539062 158.429688 153.101562 C 169.089844 156.886719 183.734375 157.453125 199.109375 153.875 C 201.5625 153.304688 203.949219 152.648438 206.265625 151.914062 C 201.011719 152.832031 195.417969 153.328125 189.613281 153.328125 C 172.914062 153.328125 157.953125 149.234375 147.875 142.773438 C 147.402344 145.3125 147.15625 147.933594 147.15625 150.609375 C 147.15625 174.085938 166.164062 193.117188 189.613281 193.117188 C 193.707031 193.117188 197.667969 192.535156 201.414062 191.449219 C 182.039062 192.875 163.976562 180.007812 159.441406 160.46875 " fill-opacity="1" fill-rule="nonzero"/></g><path fill="#498536" d="M 229.992188 136.0625 C 220.242188 142.308594 205.769531 146.269531 189.613281 146.269531 C 173.457031 146.269531 158.988281 142.308594 149.234375 136.0625 C 148.910156 137.820312 148.695312 139.617188 148.597656 141.449219 C 158.839844 147.472656 173.421875 151.242188 189.613281 151.242188 C 216.511719 151.242188 229.992188 136.0625 229.992188 136.0625 " fill-opacity="1" fill-rule="nonzero"/><path fill="#80cc28" d="M 201.820312 129.363281 C 201.820312 131.90625 199.765625 133.964844 197.230469 133.964844 C 194.691406 133.964844 192.636719 131.90625 192.636719 129.363281 C 192.636719 126.824219 194.691406 124.765625 197.230469 124.765625 C 199.765625 124.765625 201.820312 126.824219 201.820312 129.363281 " fill-opacity="1" fill-rule="nonzero"/><path fill="#80cc28" d="M 187.023438 123.429688 C 187.023438 125.339844 185.476562 126.890625 183.566406 126.890625 C 181.65625 126.890625 180.105469 125.339844 180.105469 123.429688 C 180.105469 121.515625 181.65625 119.964844 183.566406 119.964844 C 185.476562 119.964844 187.023438 121.515625 187.023438 123.429688 " fill-opacity="1" fill-rule="nonzero"/><g clip-path="url(#757bc9fdb0)"><path fill="#80cc28" d="M 203.894531 113.363281 C 203.894531 114.882812 202.664062 116.109375 201.152344 116.109375 C 199.636719 116.109375 198.40625 114.882812 198.40625 113.363281 C 198.40625 111.847656 199.636719 110.621094 201.152344 110.621094 C 202.664062 110.621094 203.894531 111.847656 203.894531 113.363281 " fill-opacity="1" fill-rule="nonzero"/></g><g fill="#498536" fill-opacity="1"><g transform="translate(109.010475, 261.232833)"><g><path d="M 9.359375 0 L 7.78125 0 L 7.78125 -3.890625 L 2.8125 -3.890625 L 2.8125 0 L 1.234375 0 L 1.234375 -9.375 L 2.8125 -9.375 L 2.8125 -5.296875 L 7.78125 -5.296875 L 7.78125 -9.375 L 9.359375 -9.375 Z M 9.359375 0 "/></g></g></g><g fill="#498536" fill-opacity="1"><g transform="translate(120.935077, 261.232833)"><g><path d="M 7.921875 -7.953125 L 2.8125 -7.953125 L 2.8125 -5.421875 L 7.390625 -5.421875 L 7.390625 -4 L 2.8125 -4 L 2.8125 -1.421875 L 8.09375 -1.421875 L 8.09375 0 L 1.234375 0 L 1.234375 -9.375 L 7.921875 -9.375 Z M 7.921875 -7.953125 "/></g></g></g><g fill="#498536" fill-opacity="1"><g transform="translate(131.053012, 261.232833)"><g><path d="M 7.171875 0 L 5.46875 -2.84375 C 5.375 -2.832031 5.226562 -2.828125 5.03125 -2.828125 L 2.8125 -2.828125 L 2.8125 0 L 1.234375 0 L 1.234375 -9.375 L 5.03125 -9.375 C 6.226562 -9.375 7.15625 -9.09375 7.8125 -8.53125 C 8.476562 -7.976562 8.8125 -7.191406 8.8125 -6.171875 C 8.8125 -5.421875 8.644531 -4.785156 8.3125 -4.265625 C 7.976562 -3.753906 7.5 -3.378906 6.875 -3.140625 L 8.96875 0 Z M 2.8125 -4.25 L 5.03125 -4.25 C 6.550781 -4.25 7.3125 -4.878906 7.3125 -6.140625 C 7.3125 -7.347656 6.550781 -7.953125 5.03125 -7.953125 L 2.8125 -7.953125 Z M 2.8125 -4.25 "/></g></g></g><g fill="#498536" fill-opacity="1"><g transform="translate(142.06759, 261.232833)"><g><path d="M 1.234375 -9.375 L 5.296875 -9.375 C 6.273438 -9.375 7.046875 -9.164062 7.609375 -8.75 C 8.171875 -8.332031 8.453125 -7.757812 8.453125 -7.03125 C 8.453125 -6.5 8.300781 -6.046875 8 -5.671875 C 7.707031 -5.304688 7.304688 -5.0625 6.796875 -4.9375 C 7.421875 -4.832031 7.910156 -4.566406 8.265625 -4.140625 C 8.628906 -3.722656 8.8125 -3.203125 8.8125 -2.578125 C 8.8125 -1.765625 8.503906 -1.128906 7.890625 -0.671875 C 7.285156 -0.222656 6.453125 0 5.390625 0 L 1.234375 0 Z M 2.8125 -7.96875 L 2.8125 -5.484375 L 5.21875 -5.484375 C 5.71875 -5.484375 6.109375 -5.59375 6.390625 -5.8125 C 6.679688 -6.039062 6.828125 -6.351562 6.828125 -6.75 C 6.828125 -7.144531 6.6875 -7.445312 6.40625 -7.65625 C 6.125 -7.863281 5.726562 -7.96875 5.21875 -7.96875 Z M 2.8125 -4.09375 L 2.8125 -1.40625 L 5.21875 -1.40625 C 5.84375 -1.40625 6.328125 -1.519531 6.671875 -1.75 C 7.015625 -1.988281 7.1875 -2.328125 7.1875 -2.765625 C 7.1875 -3.179688 7.007812 -3.503906 6.65625 -3.734375 C 6.3125 -3.972656 5.832031 -4.09375 5.21875 -4.09375 Z M 2.8125 -4.09375 "/></g></g></g><g fill="#498536" fill-opacity="1"><g transform="translate(152.854662, 261.232833)"><g><path d="M 7.28125 -2.109375 L 2.5625 -2.109375 L 1.65625 0 L 0.015625 0 L 4.15625 -9.375 L 5.765625 -9.375 L 9.875 0 L 8.1875 0 Z M 6.6875 -3.515625 L 4.921875 -7.6875 L 3.140625 -3.515625 Z M 6.6875 -3.515625 "/></g></g></g><g fill="#498536" fill-opacity="1"><g transform="translate(164.069983, 261.232833)"><g><path d="M 2.8125 -1.4375 L 6.875 -1.4375 L 6.875 0 L 1.234375 0 L 1.234375 -9.375 L 2.8125 -9.375 Z M 2.8125 -1.4375 "/></g></g></g><g fill="#498536" fill-opacity="1"><g transform="translate(172.55521, 261.232833)"><g/></g></g><g fill="#498536" fill-opacity="1"><g transform="translate(177.346788, 261.232833)"><g><path d="M 1.234375 -9.375 L 4.96875 -9.375 C 6.144531 -9.375 7.054688 -9.09375 7.703125 -8.53125 C 8.347656 -7.976562 8.671875 -7.191406 8.671875 -6.171875 C 8.671875 -5.109375 8.347656 -4.285156 7.703125 -3.703125 C 7.054688 -3.117188 6.144531 -2.828125 4.96875 -2.828125 L 2.8125 -2.828125 L 2.8125 0 L 1.234375 0 Z M 2.8125 -7.953125 L 2.8125 -4.25 L 4.90625 -4.25 C 6.40625 -4.25 7.15625 -4.878906 7.15625 -6.140625 C 7.15625 -7.347656 6.40625 -7.953125 4.90625 -7.953125 Z M 2.8125 -7.953125 "/></g></g></g><g fill="#498536" fill-opacity="1"><g transform="translate(187.692218, 261.232833)"><g><path d="M 9.359375 0 L 7.78125 0 L 7.78125 -3.890625 L 2.8125 -3.890625 L 2.8125 0 L 1.234375 0 L 1.234375 -9.375 L 2.8125 -9.375 L 2.8125 -5.296875 L 7.78125 -5.296875 L 7.78125 -9.375 L 9.359375 -9.375 Z M 9.359375 0 "/></g></g></g><g fill="#498536" fill-opacity="1"><g transform="translate(199.616817, 261.232833)"><g><path d="M 7.28125 -2.109375 L 2.5625 -2.109375 L 1.65625 0 L 0.015625 0 L 4.15625 -9.375 L 5.765625 -9.375 L 9.875 0 L 8.1875 0 Z M 6.6875 -3.515625 L 4.921875 -7.6875 L 3.140625 -3.515625 Z M 6.6875 -3.515625 "/></g></g></g><g fill="#498536" fill-opacity="1"><g transform="translate(210.832135, 261.232833)"><g><path d="M 7.171875 0 L 5.46875 -2.84375 C 5.375 -2.832031 5.226562 -2.828125 5.03125 -2.828125 L 2.8125 -2.828125 L 2.8125 0 L 1.234375 0 L 1.234375 -9.375 L 5.03125 -9.375 C 6.226562 -9.375 7.15625 -9.09375 7.8125 -8.53125 C 8.476562 -7.976562 8.8125 -7.191406 8.8125 -6.171875 C 8.8125 -5.421875 8.644531 -4.785156 8.3125 -4.265625 C 7.976562 -3.753906 7.5 -3.378906 6.875 -3.140625 L 8.96875 0 Z M 2.8125 -4.25 L 5.03125 -4.25 C 6.550781 -4.25 7.3125 -4.878906 7.3125 -6.140625 C 7.3125 -7.347656 6.550781 -7.953125 5.03125 -7.953125 L 2.8125 -7.953125 Z M 2.8125 -4.25 "/></g></g></g><g fill="#498536" fill-opacity="1"><g transform="translate(221.846718, 261.232833)"><g><path d="M 11.140625 0 L 9.6875 0 L 9.671875 -7 L 6.703125 -0.984375 L 5.671875 -0.984375 L 2.71875 -7 L 2.71875 0 L 1.234375 0 L 1.234375 -9.375 L 3.109375 -9.375 L 6.203125 -3.140625 L 9.28125 -9.375 L 11.140625 -9.375 Z M 11.140625 0 "/></g></g></g><g fill="#498536" fill-opacity="1"><g transform="translate(235.564625, 261.232833)"><g><path d="M 7.28125 -2.109375 L 2.5625 -2.109375 L 1.65625 0 L 0.015625 0 L 4.15625 -9.375 L 5.765625 -9.375 L 9.875 0 L 8.1875 0 Z M 6.6875 -3.515625 L 4.921875 -7.6875 L 3.140625 -3.515625 Z M 6.6875 -3.515625 "/></g></g></g><g fill="#498536" fill-opacity="1"><g transform="translate(246.779948, 261.232833)"><g><path d="M 5.390625 -9.40625 C 6.046875 -9.40625 6.6875 -9.28125 7.3125 -9.03125 C 7.945312 -8.78125 8.488281 -8.425781 8.9375 -7.96875 L 8.015625 -6.8125 C 7.679688 -7.175781 7.28125 -7.460938 6.8125 -7.671875 C 6.351562 -7.890625 5.882812 -8 5.40625 -8 C 4.46875 -8 3.675781 -7.679688 3.03125 -7.046875 C 2.382812 -6.410156 2.0625 -5.632812 2.0625 -4.71875 C 2.0625 -3.789062 2.382812 -3.003906 3.03125 -2.359375 C 3.675781 -1.722656 4.46875 -1.40625 5.40625 -1.40625 C 6.382812 -1.40625 7.253906 -1.773438 8.015625 -2.515625 L 8.953125 -1.46875 C 8.472656 -1 7.910156 -0.625 7.265625 -0.34375 C 6.628906 -0.0703125 5.984375 0.0625 5.328125 0.0625 C 3.953125 0.0625 2.796875 -0.390625 1.859375 -1.296875 C 0.921875 -2.210938 0.453125 -3.347656 0.453125 -4.703125 C 0.453125 -6.023438 0.925781 -7.140625 1.875 -8.046875 C 2.832031 -8.953125 4.003906 -9.40625 5.390625 -9.40625 Z M 5.390625 -9.40625 "/></g></g></g><g fill="#498536" fill-opacity="1"><g transform="translate(257.446574, 261.232833)"><g><path d="M 5.078125 -3.125 L 5.078125 0 L 3.515625 0 L 3.515625 -3.0625 L 0.015625 -9.375 L 1.609375 -9.375 L 4.28125 -4.8125 L 6.90625 -9.375 L 8.515625 -9.375 Z M 5.078125 -3.125 "/></g></g></g><g fill="#ffffff" fill-opacity="1"><g transform="translate(108.86561, 234.502177)"><g><path d="M 11.3125 0.625 C 9.351562 0.625 7.625 0.15625 6.125 -0.78125 C 4.632812 -1.71875 3.484375 -2.957031 2.671875 -4.5 C 1.859375 -6.050781 1.453125 -7.710938 1.453125 -9.484375 C 1.453125 -11.648438 1.941406 -13.535156 2.921875 -15.140625 C 3.898438 -16.753906 5.148438 -17.988281 6.671875 -18.84375 C 8.203125 -19.695312 9.75 -20.125 11.3125 -20.125 C 13.289062 -20.125 15.035156 -19.65625 16.546875 -18.71875 C 18.066406 -17.78125 19.234375 -16.539062 20.046875 -15 C 20.859375 -13.46875 21.265625 -11.816406 21.265625 -10.046875 C 21.265625 -7.878906 20.769531 -5.988281 19.78125 -4.375 C 18.789062 -2.757812 17.519531 -1.519531 15.96875 -0.65625 C 14.425781 0.195312 12.875 0.625 11.3125 0.625 Z M 11.28125 -0.734375 C 12.675781 -0.734375 13.84375 -1.148438 14.78125 -1.984375 C 15.71875 -2.828125 16.414062 -3.953125 16.875 -5.359375 C 17.34375 -6.773438 17.578125 -8.335938 17.578125 -10.046875 C 17.578125 -11.628906 17.335938 -13.082031 16.859375 -14.40625 C 16.390625 -15.738281 15.679688 -16.800781 14.734375 -17.59375 C 13.796875 -18.394531 12.644531 -18.796875 11.28125 -18.796875 C 9.21875 -18.796875 7.664062 -17.921875 6.625 -16.171875 C 5.582031 -14.429688 5.0625 -12.234375 5.0625 -9.578125 C 5.0625 -7.972656 5.289062 -6.5 5.75 -5.15625 C 6.21875 -3.820312 6.914062 -2.75 7.84375 -1.9375 C 8.769531 -1.132812 9.914062 -0.734375 11.28125 -0.734375 Z M 11.28125 -0.734375 "/></g></g></g><g fill="#ffffff" fill-opacity="1"><g transform="translate(134.660829, 234.502177)"><g><path d="M 1.890625 0.09375 C 1.703125 0.09375 1.5625 0.0234375 1.46875 -0.109375 C 1.375 -0.242188 1.328125 -0.40625 1.328125 -0.59375 C 1.347656 -0.894531 1.410156 -1.078125 1.515625 -1.140625 C 1.617188 -1.203125 1.816406 -1.234375 2.109375 -1.234375 C 2.703125 -1.234375 3.140625 -1.34375 3.421875 -1.5625 C 3.710938 -1.78125 3.894531 -2.046875 3.96875 -2.359375 C 4.039062 -2.679688 4.085938 -3.097656 4.109375 -3.609375 L 4.109375 -15.859375 C 4.085938 -16.390625 4.039062 -16.804688 3.96875 -17.109375 C 3.894531 -17.421875 3.710938 -17.691406 3.421875 -17.921875 C 3.140625 -18.148438 2.703125 -18.265625 2.109375 -18.265625 L 1.921875 -18.265625 C 1.710938 -18.265625 1.566406 -18.300781 1.484375 -18.375 C 1.398438 -18.445312 1.347656 -18.628906 1.328125 -18.921875 C 1.328125 -19.097656 1.375 -19.253906 1.46875 -19.390625 C 1.5625 -19.523438 1.703125 -19.59375 1.890625 -19.59375 C 3.222656 -19.53125 4.445312 -19.5 5.5625 -19.5 L 10.875 -19.5 C 12.46875 -19.476562 13.789062 -19.222656 14.84375 -18.734375 C 15.90625 -18.253906 16.679688 -17.640625 17.171875 -16.890625 C 17.671875 -16.140625 17.921875 -15.332031 17.921875 -14.46875 C 17.921875 -13.332031 17.472656 -12.289062 16.578125 -11.34375 C 15.679688 -10.394531 14.460938 -9.710938 12.921875 -9.296875 L 13.4375 -8.46875 C 14.3125 -7.0625 15.097656 -5.859375 15.796875 -4.859375 C 16.492188 -3.867188 17.253906 -2.941406 18.078125 -2.078125 C 18.660156 -1.597656 19.28125 -1.316406 19.9375 -1.234375 C 19.976562 -1.234375 20.066406 -1.226562 20.203125 -1.21875 C 20.347656 -1.207031 20.46875 -1.148438 20.5625 -1.046875 C 20.65625 -0.941406 20.703125 -0.789062 20.703125 -0.59375 C 20.703125 -0.40625 20.65625 -0.242188 20.5625 -0.109375 C 20.46875 0.0234375 20.332031 0.09375 20.15625 0.09375 L 19.34375 0.0625 C 18.4375 0.0195312 17.78125 0 17.375 0 C 16.550781 -0.164062 15.84375 -0.457031 15.25 -0.875 C 14.664062 -1.300781 14.082031 -1.90625 13.5 -2.6875 C 12.90625 -3.46875 12.070312 -4.742188 11 -6.515625 L 10.453125 -7.421875 C 10.140625 -7.890625 9.835938 -8.210938 9.546875 -8.390625 C 9.265625 -8.566406 8.769531 -8.65625 8.0625 -8.65625 L 7.171875 -8.65625 L 7.171875 -3.609375 C 7.191406 -3.097656 7.238281 -2.679688 7.3125 -2.359375 C 7.382812 -2.046875 7.5625 -1.78125 7.84375 -1.5625 C 8.132812 -1.34375 8.578125 -1.234375 9.171875 -1.234375 L 9.359375 -1.234375 C 9.546875 -1.234375 9.6875 -1.195312 9.78125 -1.125 C 9.875 -1.050781 9.929688 -0.875 9.953125 -0.59375 C 9.953125 -0.40625 9.90625 -0.242188 9.8125 -0.109375 C 9.71875 0.0234375 9.578125 0.09375 9.390625 0.09375 C 8.078125 0.03125 6.789062 0 5.53125 0 C 4.4375 0 3.222656 0.03125 1.890625 0.09375 Z M 9.890625 -9.859375 C 12.960938 -9.859375 14.5 -11.300781 14.5 -14.1875 C 14.5 -15.363281 14.09375 -16.351562 13.28125 -17.15625 C 12.476562 -17.957031 11.160156 -18.359375 9.328125 -18.359375 C 8.734375 -18.359375 8.28125 -18.285156 7.96875 -18.140625 C 7.664062 -17.992188 7.457031 -17.742188 7.34375 -17.390625 C 7.226562 -17.046875 7.171875 -16.515625 7.171875 -15.796875 L 7.171875 -9.859375 Z M 9.890625 -9.859375 "/></g></g></g><g fill="#ffffff" fill-opacity="1"><g transform="translate(158.479047, 234.502177)"><g><path d="M 11.09375 0.625 C 9.300781 0.625 7.675781 0.25 6.21875 -0.5 C 4.769531 -1.257812 3.625 -2.40625 2.78125 -3.9375 C 1.9375 -5.476562 1.515625 -7.367188 1.515625 -9.609375 C 1.515625 -11.691406 1.972656 -13.523438 2.890625 -15.109375 C 3.804688 -16.703125 5.078125 -17.9375 6.703125 -18.8125 C 8.328125 -19.6875 10.191406 -20.125 12.296875 -20.125 C 13.328125 -20.125 14.347656 -19.96875 15.359375 -19.65625 C 16.367188 -19.34375 17.203125 -18.859375 17.859375 -18.203125 C 18.523438 -17.546875 18.859375 -16.734375 18.859375 -15.765625 C 18.859375 -14.859375 18.585938 -14.070312 18.046875 -13.40625 C 17.515625 -12.75 16.804688 -12.421875 15.921875 -12.421875 C 15.484375 -12.421875 15.0625 -12.523438 14.65625 -12.734375 C 14.257812 -12.941406 14.050781 -13.207031 14.03125 -13.53125 C 14.03125 -13.550781 14.164062 -13.664062 14.4375 -13.875 C 14.71875 -14.082031 14.976562 -14.359375 15.21875 -14.703125 C 15.457031 -15.054688 15.578125 -15.484375 15.578125 -15.984375 C 15.578125 -16.847656 15.234375 -17.546875 14.546875 -18.078125 C 13.867188 -18.617188 13 -18.890625 11.9375 -18.890625 C 10.65625 -18.890625 9.5 -18.53125 8.46875 -17.8125 C 7.4375 -17.101562 6.617188 -16.0625 6.015625 -14.6875 C 5.421875 -13.320312 5.125 -11.691406 5.125 -9.796875 C 5.125 -7.960938 5.414062 -6.375 6 -5.03125 C 6.59375 -3.695312 7.421875 -2.671875 8.484375 -1.953125 C 9.546875 -1.242188 10.773438 -0.890625 12.171875 -0.890625 C 12.835938 -0.890625 13.414062 -0.925781 13.90625 -1 C 14.40625 -1.070312 14.941406 -1.203125 15.515625 -1.390625 L 15.515625 -4.546875 C 15.515625 -5.265625 15.488281 -5.765625 15.4375 -6.046875 C 15.382812 -6.335938 15.21875 -6.554688 14.9375 -6.703125 C 14.664062 -6.847656 14.195312 -6.921875 13.53125 -6.921875 C 13.3125 -6.921875 13.148438 -6.957031 13.046875 -7.03125 C 12.941406 -7.101562 12.878906 -7.285156 12.859375 -7.578125 C 12.859375 -7.753906 12.914062 -7.910156 13.03125 -8.046875 C 13.144531 -8.179688 13.300781 -8.25 13.5 -8.25 C 14.800781 -8.1875 15.9375 -8.15625 16.90625 -8.15625 C 17.832031 -8.15625 18.945312 -8.1875 20.25 -8.25 C 20.425781 -8.25 20.566406 -8.179688 20.671875 -8.046875 C 20.773438 -7.910156 20.828125 -7.753906 20.828125 -7.578125 C 20.804688 -7.285156 20.742188 -7.101562 20.640625 -7.03125 C 20.535156 -6.957031 20.375 -6.921875 20.15625 -6.921875 C 19.53125 -6.921875 19.082031 -6.835938 18.8125 -6.671875 C 18.550781 -6.503906 18.390625 -6.269531 18.328125 -5.96875 C 18.265625 -5.675781 18.234375 -5.203125 18.234375 -4.546875 L 18.234375 -0.890625 C 17.015625 -0.316406 15.898438 0.078125 14.890625 0.296875 C 13.878906 0.515625 12.613281 0.625 11.09375 0.625 Z M 11.09375 0.625 "/></g></g></g><g fill="#ffffff" fill-opacity="1"><g transform="translate(182.945969, 234.502177)"><g><path d="M 0.1875 0.09375 C 0 0.09375 -0.140625 0.0234375 -0.234375 -0.109375 C -0.328125 -0.242188 -0.375 -0.40625 -0.375 -0.59375 C -0.351562 -0.894531 -0.289062 -1.078125 -0.1875 -1.140625 C -0.0820312 -1.203125 0.0390625 -1.234375 0.1875 -1.234375 C 0.332031 -1.234375 0.425781 -1.234375 0.46875 -1.234375 C 1.082031 -1.234375 1.53125 -1.390625 1.8125 -1.703125 C 2.101562 -2.023438 2.335938 -2.390625 2.515625 -2.796875 C 2.691406 -3.203125 2.8125 -3.472656 2.875 -3.609375 L 8.28125 -16.40625 C 8.40625 -16.71875 8.46875 -16.96875 8.46875 -17.15625 C 8.46875 -17.519531 8.320312 -17.785156 8.03125 -17.953125 C 7.75 -18.117188 7.347656 -18.253906 6.828125 -18.359375 C 6.484375 -18.421875 6.269531 -18.484375 6.1875 -18.546875 C 6.101562 -18.609375 6.0625 -18.78125 6.0625 -19.0625 C 6.0625 -19.3125 6.125 -19.476562 6.25 -19.5625 C 6.382812 -19.644531 6.597656 -19.6875 6.890625 -19.6875 C 7.921875 -19.6875 8.738281 -19.609375 9.34375 -19.453125 C 9.957031 -19.296875 10.488281 -18.984375 10.9375 -18.515625 C 11.394531 -18.054688 11.816406 -17.351562 12.203125 -16.40625 L 17.40625 -3.609375 C 17.707031 -2.828125 18.003906 -2.238281 18.296875 -1.84375 C 18.585938 -1.457031 19.019531 -1.253906 19.59375 -1.234375 L 19.78125 -1.234375 C 19.988281 -1.234375 20.132812 -1.195312 20.21875 -1.125 C 20.300781 -1.050781 20.347656 -0.875 20.359375 -0.59375 C 20.359375 -0.40625 20.3125 -0.242188 20.21875 -0.109375 C 20.132812 0.0234375 20 0.09375 19.8125 0.09375 C 18.488281 0.03125 17.351562 0 16.40625 0 C 15.175781 0 13.898438 0.03125 12.578125 0.09375 C 12.390625 0.09375 12.25 0.0234375 12.15625 -0.109375 C 12.0625 -0.242188 12.015625 -0.40625 12.015625 -0.59375 C 12.035156 -0.875 12.085938 -1.050781 12.171875 -1.125 C 12.253906 -1.195312 12.398438 -1.234375 12.609375 -1.234375 C 13.304688 -1.234375 13.800781 -1.300781 14.09375 -1.4375 C 14.382812 -1.570312 14.53125 -1.8125 14.53125 -2.15625 C 14.53125 -2.425781 14.40625 -2.910156 14.15625 -3.609375 L 13.109375 -6.1875 L 5.46875 -6.1875 C 4.957031 -4.90625 4.664062 -4.160156 4.59375 -3.953125 C 4.519531 -3.742188 4.484375 -3.628906 4.484375 -3.609375 C 4.234375 -2.828125 4.109375 -2.328125 4.109375 -2.109375 C 4.109375 -1.753906 4.257812 -1.519531 4.5625 -1.40625 C 4.875 -1.289062 5.460938 -1.234375 6.328125 -1.234375 L 6.515625 -1.234375 C 6.722656 -1.234375 6.867188 -1.195312 6.953125 -1.125 C 7.035156 -1.050781 7.085938 -0.875 7.109375 -0.59375 C 7.109375 -0.40625 7.0625 -0.242188 6.96875 -0.109375 C 6.875 0.0234375 6.734375 0.09375 6.546875 0.09375 C 5.234375 0.03125 4.113281 0 3.1875 0 C 2.519531 0 1.519531 0.03125 0.1875 0.09375 Z M 6.0625 -7.515625 L 12.546875 -7.515625 L 9.421875 -15.453125 L 9.328125 -15.453125 Z M 6.0625 -7.515625 "/></g></g></g><g fill="#ffffff" fill-opacity="1"><g transform="translate(206.208156, 234.502177)"><g><path d="M 1.921875 0.09375 C 1.734375 0.09375 1.59375 0.0234375 1.5 -0.109375 C 1.40625 -0.242188 1.359375 -0.40625 1.359375 -0.59375 C 1.378906 -0.894531 1.441406 -1.078125 1.546875 -1.140625 C 1.648438 -1.203125 1.84375 -1.234375 2.125 -1.234375 C 2.726562 -1.234375 3.164062 -1.34375 3.4375 -1.5625 C 3.71875 -1.78125 3.890625 -2.035156 3.953125 -2.328125 C 4.015625 -2.628906 4.054688 -3.054688 4.078125 -3.609375 L 4.140625 -15.890625 C 4.140625 -16.503906 4.070312 -16.96875 3.9375 -17.28125 C 3.800781 -17.601562 3.585938 -17.835938 3.296875 -17.984375 C 3.015625 -18.128906 2.609375 -18.253906 2.078125 -18.359375 C 1.722656 -18.421875 1.503906 -18.484375 1.421875 -18.546875 C 1.335938 -18.609375 1.296875 -18.78125 1.296875 -19.0625 C 1.296875 -19.3125 1.363281 -19.476562 1.5 -19.5625 C 1.632812 -19.644531 1.84375 -19.6875 2.125 -19.6875 C 3.40625 -19.6875 4.414062 -19.597656 5.15625 -19.421875 C 5.90625 -19.242188 6.5625 -18.925781 7.125 -18.46875 C 7.6875 -18.019531 8.3125 -17.332031 9 -16.40625 L 17.46875 -5.28125 L 17.5625 -5.28125 L 17.5 -15.890625 C 17.476562 -16.441406 17.4375 -16.863281 17.375 -17.15625 C 17.3125 -17.457031 17.140625 -17.71875 16.859375 -17.9375 C 16.578125 -18.15625 16.140625 -18.265625 15.546875 -18.265625 L 15.359375 -18.265625 C 15.148438 -18.265625 15 -18.300781 14.90625 -18.375 C 14.8125 -18.445312 14.757812 -18.628906 14.75 -18.921875 C 14.75 -19.097656 14.796875 -19.253906 14.890625 -19.390625 C 14.992188 -19.523438 15.128906 -19.59375 15.296875 -19.59375 C 16.617188 -19.53125 17.609375 -19.5 18.265625 -19.5 C 18.660156 -19.5 19.410156 -19.519531 20.515625 -19.5625 L 21.171875 -19.59375 C 21.359375 -19.59375 21.5 -19.523438 21.59375 -19.390625 C 21.6875 -19.253906 21.734375 -19.097656 21.734375 -18.921875 C 21.710938 -18.609375 21.648438 -18.421875 21.546875 -18.359375 C 21.441406 -18.296875 21.242188 -18.265625 20.953125 -18.265625 C 20.359375 -18.265625 19.921875 -18.15625 19.640625 -17.9375 C 19.359375 -17.71875 19.1875 -17.457031 19.125 -17.15625 C 19.0625 -16.863281 19.019531 -16.441406 19 -15.890625 L 18.953125 -0.3125 C 18.929688 -0.0390625 18.671875 0.09375 18.171875 0.09375 C 17.773438 0.09375 17.476562 -0.0390625 17.28125 -0.3125 L 5.625 -15.890625 L 5.53125 -15.890625 L 5.59375 -3.609375 C 5.613281 -3.054688 5.65625 -2.628906 5.71875 -2.328125 C 5.78125 -2.035156 5.945312 -1.78125 6.21875 -1.5625 C 6.5 -1.34375 6.941406 -1.234375 7.546875 -1.234375 L 7.71875 -1.234375 C 7.925781 -1.234375 8.078125 -1.195312 8.171875 -1.125 C 8.265625 -1.050781 8.320312 -0.875 8.34375 -0.59375 C 8.34375 -0.40625 8.296875 -0.242188 8.203125 -0.109375 C 8.109375 0.0234375 7.96875 0.09375 7.78125 0.09375 C 6.46875 0.03125 5.472656 0 4.796875 0 C 4.378906 0 3.65625 0.0195312 2.625 0.0625 Z M 1.921875 0.09375 "/></g></g></g><g fill="#ffffff" fill-opacity="1"><g transform="translate(232.065164, 234.502177)"><g><path d="M 1.859375 0.09375 C 1.671875 0.09375 1.53125 0.0234375 1.4375 -0.109375 C 1.34375 -0.242188 1.296875 -0.40625 1.296875 -0.59375 C 1.316406 -0.894531 1.382812 -1.078125 1.5 -1.140625 C 1.613281 -1.203125 1.804688 -1.234375 2.078125 -1.234375 C 2.671875 -1.234375 3.109375 -1.34375 3.390625 -1.5625 C 3.679688 -1.78125 3.867188 -2.039062 3.953125 -2.34375 C 4.035156 -2.65625 4.085938 -3.078125 4.109375 -3.609375 L 4.109375 -15.890625 C 4.085938 -16.421875 4.035156 -16.835938 3.953125 -17.140625 C 3.867188 -17.453125 3.679688 -17.71875 3.390625 -17.9375 C 3.109375 -18.15625 2.671875 -18.265625 2.078125 -18.265625 L 1.890625 -18.265625 C 1.703125 -18.265625 1.5625 -18.300781 1.46875 -18.375 C 1.375 -18.445312 1.316406 -18.628906 1.296875 -18.921875 C 1.296875 -19.097656 1.34375 -19.253906 1.4375 -19.390625 C 1.53125 -19.523438 1.671875 -19.59375 1.859375 -19.59375 C 3.191406 -19.53125 4.414062 -19.5 5.53125 -19.5 C 6.769531 -19.5 8.054688 -19.53125 9.390625 -19.59375 C 9.578125 -19.59375 9.71875 -19.523438 9.8125 -19.390625 C 9.90625 -19.253906 9.953125 -19.097656 9.953125 -18.921875 C 9.929688 -18.609375 9.863281 -18.421875 9.75 -18.359375 C 9.632812 -18.296875 9.429688 -18.265625 9.140625 -18.265625 C 8.546875 -18.265625 8.101562 -18.15625 7.8125 -17.9375 C 7.53125 -17.71875 7.351562 -17.445312 7.28125 -17.125 C 7.207031 -16.8125 7.160156 -16.398438 7.140625 -15.890625 L 7.140625 -3.609375 C 7.160156 -3.097656 7.207031 -2.679688 7.28125 -2.359375 C 7.351562 -2.046875 7.53125 -1.78125 7.8125 -1.5625 C 8.101562 -1.34375 8.546875 -1.234375 9.140625 -1.234375 L 9.328125 -1.234375 C 9.535156 -1.234375 9.6875 -1.195312 9.78125 -1.125 C 9.875 -1.050781 9.929688 -0.875 9.953125 -0.59375 C 9.953125 -0.40625 9.90625 -0.242188 9.8125 -0.109375 C 9.71875 0.0234375 9.578125 0.09375 9.390625 0.09375 C 8.078125 0.03125 6.800781 0 5.5625 0 C 4.425781 0 3.191406 0.03125 1.859375 0.09375 Z M 1.859375 0.09375 "/></g></g></g><g fill="#ffffff" fill-opacity="1"><g transform="translate(246.399964, 234.502177)"><g><path d="M 11.0625 0.625 C 9.3125 0.625 7.707031 0.207031 6.25 -0.625 C 4.800781 -1.46875 3.648438 -2.660156 2.796875 -4.203125 C 1.941406 -5.742188 1.515625 -7.546875 1.515625 -9.609375 C 1.515625 -11.691406 1.925781 -13.523438 2.75 -15.109375 C 3.570312 -16.703125 4.742188 -17.9375 6.265625 -18.8125 C 7.796875 -19.6875 9.582031 -20.125 11.625 -20.125 C 13.394531 -20.125 14.96875 -19.765625 16.34375 -19.046875 C 17.726562 -18.335938 18.421875 -17.242188 18.421875 -15.765625 C 18.441406 -14.835938 18.160156 -14.046875 17.578125 -13.390625 C 17.003906 -12.742188 16.234375 -12.421875 15.265625 -12.421875 C 14.898438 -12.421875 14.585938 -12.488281 14.328125 -12.625 C 14.066406 -12.757812 13.875 -12.914062 13.75 -13.09375 C 13.625 -13.28125 13.570312 -13.425781 13.59375 -13.53125 C 13.59375 -13.570312 13.738281 -13.6875 14.03125 -13.875 C 14.320312 -14.0625 14.578125 -14.316406 14.796875 -14.640625 C 15.023438 -14.972656 15.140625 -15.378906 15.140625 -15.859375 C 15.140625 -16.785156 14.828125 -17.519531 14.203125 -18.0625 C 13.578125 -18.613281 12.707031 -18.890625 11.59375 -18.890625 C 10.332031 -18.890625 9.210938 -18.53125 8.234375 -17.8125 C 7.253906 -17.101562 6.488281 -16.0625 5.9375 -14.6875 C 5.394531 -13.320312 5.125 -11.691406 5.125 -9.796875 C 5.125 -8.148438 5.414062 -6.648438 6 -5.296875 C 6.59375 -3.953125 7.425781 -2.878906 8.5 -2.078125 C 9.570312 -1.285156 10.796875 -0.890625 12.171875 -0.890625 C 13.285156 -0.890625 14.238281 -1.117188 15.03125 -1.578125 C 15.820312 -2.046875 16.539062 -2.796875 17.1875 -3.828125 C 17.289062 -4.015625 17.429688 -4.109375 17.609375 -4.109375 C 17.773438 -4.109375 17.960938 -4.046875 18.171875 -3.921875 C 18.503906 -3.691406 18.671875 -3.46875 18.671875 -3.25 C 18.671875 -3.125 18.628906 -3.019531 18.546875 -2.9375 C 17.765625 -1.945312 17.023438 -1.195312 16.328125 -0.6875 C 15.640625 -0.1875 14.894531 0.15625 14.09375 0.34375 C 13.289062 0.53125 12.28125 0.625 11.0625 0.625 Z M 11.0625 0.625 "/></g></g></g></svg>